<?xml version="1.0" encoding="UTF-8" standalone="no"?>
<!-- Created with Inkscape (http://www.inkscape.org/) -->

<svg
   xmlns:dc="http://purl.org/dc/elements/1.1/"
   xmlns:cc="http://creativecommons.org/ns#"
   xmlns:rdf="http://www.w3.org/1999/02/22-rdf-syntax-ns#"
   xmlns:svg="http://www.w3.org/2000/svg"
   xmlns="http://www.w3.org/2000/svg"
   xmlns:sodipodi="http://sodipodi.sourceforge.net/DTD/sodipodi-0.dtd"
   xmlns:inkscape="http://www.inkscape.org/namespaces/inkscape"
   id="svg2"
   sodipodi:docname="pitr-Ducky-icon.svg"
   viewBox="0 0 2048 2048"
   sodipodi:version="0.32"
   version="1.0"
   inkscape:output_extension="org.inkscape.output.svg.inkscape"
   inkscape:version="0.92.4 (5da689c313, 2019-01-14)"
   width="2048"
   height="2048"
   inkscape:export-filename="/home/ecelis/Nextcloud/Design/patito.ninja/patitoninja_2048png.png"
   inkscape:export-xdpi="96"
   inkscape:export-ydpi="96">
  <defs
     id="defs11" />
  <sodipodi:namedview
     id="base"
     bordercolor="#666666"
     guidetolerance="2"
     inkscape:pageshadow="2"
     inkscape:window-width="1920"
     objecttolerance="10000"
     pagecolor="#ffffff"
     inkscape:window-height="1021"
     width="60px"
     inkscape:zoom="0.23310221"
     inkscape:window-x="0"
     height="60px"
     borderopacity="1.0"
     inkscape:current-layer="layer2"
     inkscape:cx="933.46927"
     inkscape:cy="1013.4145"
     inkscape:window-y="30"
     borderlayer="true"
     showgrid="true"
     inkscape:pageopacity="0.0"
     inkscape:document-units="px"
     inkscape:window-maximized="1"
     fit-margin-top="0"
     fit-margin-left="0"
     fit-margin-right="0"
     fit-margin-bottom="0">
    <inkscape:grid
       id="grid6084"
       visible="true"
       type="xygrid"
       enabled="true"
       empspacing="4"
       originx="-5.7969338"
       originy="-14.650001" />
  </sodipodi:namedview>
  <g
     id="layer2"
     inkscape:label="zzz"
     inkscape:groupmode="layer"
     transform="translate(-5.7969338,1934.65)">
    <g
       id="g4198"
       transform="matrix(17.269308,0,0,19.407685,-84.312112,-2083.5111)">
      <path
         d="m 106.71,28.014 c -4.89,0 -8.792,3.967 -8.792,8.858 v 10.402 c 2.067,1.021 4.412,1.61 6.842,1.61 8.87,0 16.04,-7.573 16.04,-16.911 0,-1.362 -0.18,-2.69 -0.47,-3.959 z"
         style="fill:#1a1a1a;stroke:#1a1a1a;stroke-width:4;stroke-linejoin:round;stroke-opacity:1"
         id="path3297"
         inkscape:connector-curvature="0" />
      <path
         d="m 80,11.237 c -13.043,0 -23.622,10.888 -23.622,24.293 0,7.731 3.51,14.61 8.993,19.058 -3.244,-0.338 -6.563,-0.537 -9.932,-0.537 -4.863,0 -9.605,0.451 -14.227,1.141 C 37.327,47.065 28.278,40.086 20.802,37.952 10.683,49.113 8.704,60.809 8.8,71.235 c 0.1115,12.123 3.619,21.561 8.589,28.855 11.516,6.47 25.352,10.26 40.197,10.26 12.481,0 24.224,-2.68 34.493,-7.38 6.567,-7.886 10.541,-17.98 10.541,-28.988 0,-7.858 -2.02,-15.23 -5.575,-21.675 C 101.11,47.944 103.62,42.044 103.62,35.53 103.62,22.125 93.043,11.237 80,11.237 Z"
         style="fill:#1a1a1a;stroke:#1a1a1a;stroke-width:6;stroke-linejoin:round;stroke-opacity:1"
         sodipodi:nodetypes="cscsccscscscsc"
         id="path2278"
         inkscape:connector-curvature="0" />
      <path
         style="fill:#ffff00;fill-opacity:1;stroke:#000000;stroke-width:2;stroke-miterlimit:4;stroke-dasharray:none;stroke-opacity:1"
         d="M 103.20038,32.400034 A 18,8.1449709 11.74397 0 1 83.919365,36.710809 18,8.1449709 11.74397 0 1 67.953977,25.072641 18,8.1449709 11.74397 0 1 87.234999,20.761866 18,8.1449709 11.74397 0 1 103.20038,32.400034 Z"
         id="path4139"
         inkscape:connector-curvature="0" />
      <path
         style="fill:#ffffff;stroke:#000000;stroke-width:3.12498045;stroke-linejoin:round;stroke-opacity:1"
         d="m 89.938382,28.866581 a 4.0024538,3.8315969 0 0 1 -4.002454,3.831597 4.0024538,3.8315969 0 0 1 -4.002453,-3.831597 4.0024538,3.8315969 0 0 1 4.002453,-3.831597 4.0024538,3.8315969 0 0 1 4.002454,3.831597 z"
         id="path3307"
         inkscape:connector-curvature="0" />
    </g>
  </g>
  <metadata
     id="metadata9">
    <rdf:RDF>
      <cc:Work>
        <dc:format>image/svg+xml</dc:format>
        <dc:type
           rdf:resource="http://purl.org/dc/dcmitype/StillImage" />
        <cc:license
           rdf:resource="http://creativecommons.org/publicdomain/zero/1.0/" />
        <dc:publisher>
          <cc:Agent
             rdf:about="http://openclipart.org/">
            <dc:title>Openclipart</dc:title>
          </cc:Agent>
        </dc:publisher>
        <dc:title></dc:title>
        <dc:date>2009-03-18T14:03:06</dc:date>
        <dc:description />
        <dc:source>https://openclipart.org/detail/22535/ducky-icon-by-pitr</dc:source>
        <dc:creator>
          <cc:Agent>
            <dc:title>pitr</dc:title>
          </cc:Agent>
        </dc:creator>
        <dc:subject>
          <rdf:Bag>
            <rdf:li>baby</rdf:li>
            <rdf:li>bath</rdf:li>
            <rdf:li>contour</rdf:li>
            <rdf:li>duck</rdf:li>
            <rdf:li>icon</rdf:li>
            <rdf:li>rubber</rdf:li>
            <rdf:li>toy</rdf:li>
            <rdf:li>yellow</rdf:li>
          </rdf:Bag>
        </dc:subject>
      </cc:Work>
      <cc:License
         rdf:about="http://creativecommons.org/publicdomain/zero/1.0/">
        <cc:permits
           rdf:resource="http://creativecommons.org/ns#Reproduction" />
        <cc:permits
           rdf:resource="http://creativecommons.org/ns#Distribution" />
        <cc:permits
           rdf:resource="http://creativecommons.org/ns#DerivativeWorks" />
      </cc:License>
    </rdf:RDF>
  </metadata>
</svg>
